<?xml version="1.0" encoding="utf-8"?>
<!-- Generator: Adobe Illustrator 19.2.1, SVG Export Plug-In . SVG Version: 6.00 Build 0)  -->
<svg version="1.1" id="Layer_1" xmlns="http://www.w3.org/2000/svg" xmlns:xlink="http://www.w3.org/1999/xlink" x="0px" y="0px"
	 viewBox="0 0 44.1 39.1" style="enable-background:new 0 0 44.1 39.1;" xml:space="preserve">
<style type="text/css">
	.st0{fill:#999999;stroke:#FFFFFF;stroke-miterlimit:10;}
	.st1{fill:#999999;}
</style>
<g>
	<path class="st0" d="M9,38.1c-0.4,0-0.8,0-1.2-0.1c-2.3-0.3-4.3-1.5-5.6-3.3c-2.8-3.7-2.1-9.1,1.6-11.9l11.5-8.8
		c3.7-2.8,9.1-2.1,11.9,1.6c1.4,1.8,2,4,1.7,6.3c-0.3,2.3-1.5,4.3-3.3,5.6v0l-11.5,8.8C12.7,37.5,10.9,38.1,9,38.1z M20.5,16.3
		c-1,0-1.9,0.3-2.7,0.9L6.3,26c-2,1.5-2.4,4.4-0.9,6.3c0.7,1,1.8,1.6,3,1.7c1.2,0.2,2.4-0.1,3.3-0.9l11.5-8.8c1-0.7,1.6-1.8,1.7-3
		c0.2-1.2-0.1-2.4-0.9-3.3C23.2,16.9,21.9,16.3,20.5,16.3z"/>
	<path class="st0" d="M23.5,26.6c-2.6,0-5.1-1.2-6.8-3.4c-2.8-3.7-2.1-9.1,1.6-11.9l11.5-8.8c1.8-1.4,4-2,6.3-1.7
		c2.3,0.3,4.3,1.5,5.6,3.3c2.8,3.7,2.1,9.1-1.6,11.9l-11.5,8.8C27.1,26,25.3,26.6,23.5,26.6z M35,4.8c-1,0-1.9,0.3-2.7,0.9
		l-11.5,8.8c-2,1.5-2.4,4.4-0.9,6.3c1.5,2,4.4,2.4,6.3,0.9l11.5-8.8c2-1.5,2.4-4.4,0.9-6.3c-0.7-1-1.8-1.6-3-1.7
		C35.4,4.8,35.2,4.8,35,4.8z"/>
	<path class="st0" d="M27.3,15.6c1.4,1.8,2,4,1.7,6.3c-0.3,2.3-1.5,4.3-3.3,5.6l0,0l-11.5,8.8l-2.4-3.2l11.5-8.8
		c1-0.7,1.6-1.8,1.7-3c0.2-1.2-0.1-2.4-0.9-3.3"/>
	<polygon class="st1" points="12.5,33.2 11.6,33.9 13.4,36.3 14.3,35.6 	"/>
</g>
</svg>
